<svg width="344" height="73" viewBox="0 0 344 73" fill="none" xmlns="http://www.w3.org/2000/svg">
<path d="M343.928 36.3361C343.662 16.5922 327.217 0.621429 307.019 0.621429C286.821 0.621429 270.086 16.8532 270.086 36.8107C270.086 56.7682 286.651 73 307.019 73C315.52 73 323.318 70.1523 329.567 65.4062V72.2881H343.952V36.3361H343.928ZM307.019 58.904C294.571 58.904 284.472 48.9846 284.472 36.8107C284.472 24.6369 294.595 14.7175 307.019 14.7175C319.443 14.7175 329.567 24.6369 329.567 36.8107C329.567 48.9846 319.443 58.904 307.019 58.904Z" fill="black"/>
<path d="M186.315 0.212402C165.947 0.212402 149.866 16.4442 149.866 36.4017C149.866 56.3592 166.432 72.591 186.799 72.591C201.282 72.591 213.803 64.3564 219.858 52.4199H202.299C198.255 56.1693 192.806 58.4949 186.799 58.4949C175.804 58.4949 166.625 50.735 164.639 40.5071H222.958C223.127 39.0833 223.248 37.873 223.248 36.4017C223.248 33.8862 222.982 31.442 222.498 29.0689C219.034 12.6235 204.14 0.212402 186.315 0.212402ZM186.315 14.3084C196.051 14.3084 204.358 20.4072 207.506 28.9028H165.56C168.563 20.4072 176.579 14.3084 186.315 14.3084Z" fill="black"/>
<path d="M271.151 0.692598C270.255 0.621405 269.359 0.573944 268.439 0.573944C259.454 0.573944 251.219 3.75386 244.801 8.99834V2.18763H230.561V72.0982H245.819V36.7158C245.843 24.5657 256.039 14.67 268.439 14.67C269.359 14.67 270.255 14.7412 271.151 14.8361V0.692598Z" fill="black"/>
<path d="M106.998 0C90.9892 0 77.3542 9.96689 72.1229 23.8968C66.8675 9.96689 53.2324 0 37.224 0C16.7108 0 0 16.3742 0 36.4741C0 56.5739 16.7108 72.9481 37.224 72.9481C53.2324 72.9481 66.8675 62.9812 72.0987 49.0513C77.3299 62.9812 90.965 72.9481 106.973 72.9481C127.511 72.9481 144.197 56.5739 144.197 36.4741C144.197 16.3742 127.535 0 106.998 0ZM106.998 58.9707C96.4384 58.9707 87.5502 51.9465 84.8861 42.4305H59.3597C56.6957 51.9465 47.8075 58.9707 37.2482 58.9707C24.5819 58.9707 14.289 48.8852 14.289 36.4741C14.289 24.0629 24.5819 13.9774 37.224 13.9774C47.7833 13.9774 56.6715 21.0017 59.3355 30.5177H84.8619C87.526 21.0017 96.4142 13.9774 106.973 13.9774C119.64 13.9774 129.933 24.0629 129.933 36.4741C129.933 48.8852 119.64 58.9707 106.973 58.9707H106.998Z" fill="black"/>
</svg>
